<svg width="13" height="15" viewBox="0 0 13 15" fill="none" xmlns="http://www.w3.org/2000/svg">
<path d="M6.6875 14.1758C4.4375 14.1758 2.32812 13.4727 0.921875 12.207L2.57422 9.95703C3.66406 11.0117 5.14062 11.6094 6.75781 11.6094C8.26953 11.6094 9.14844 11.1172 9.14844 10.2734C9.14844 9.42969 8.12891 9.21875 6.54688 8.76172C4.29688 8.12891 1.44922 7.32031 1.44922 4.4375C1.44922 1.97656 3.52344 0.464844 6.79297 0.464844C8.72656 0.464844 10.3789 0.992188 11.8906 2.08203L10.2734 4.33203C9.28906 3.52344 7.98828 3.06641 6.6875 3.06641C5.31641 3.06641 4.4375 3.55859 4.4375 4.29688C4.4375 5.07031 5.45703 5.45703 7.25 5.94922C9.46484 6.54688 12.207 7.32031 12.207 10.0625C12.207 12.6641 10.168 14.1758 6.6875 14.1758Z" fill="#FF3A00"/>
</svg>
