<?xml version="1.0" standalone="no"?>
<!DOCTYPE svg PUBLIC "-//W3C//DTD SVG 20010904//EN"
 "http://www.w3.org/TR/2001/REC-SVG-20010904/DTD/svg10.dtd">
<svg version="1.0" xmlns="http://www.w3.org/2000/svg"
 width="960.000000pt" height="960.000000pt" viewBox="0 0 960.000000 960.000000"
 preserveAspectRatio="xMidYMid meet">
<metadata>
Created by potrace 1.14, written by Peter Selinger 2001-2017
</metadata>
<g transform="translate(0.000000,960.000000) scale(0.100000,-0.100000)"
fill="#000000" stroke="none">
<path d="M4867 9303 c-1 0 -72 -4 -157 -8 -85 -3 -175 -8 -200 -10 -25 -3 -76
-7 -115 -10 -38 -3 -81 -7 -95 -10 -23 -3 -79 -11 -160 -21 -55 -7 -104 -14
-130 -19 -14 -3 -38 -7 -55 -10 -16 -3 -43 -9 -60 -12 -16 -4 -34 -8 -40 -9
-5 -1 -12 -3 -15 -4 -3 -1 -14 -3 -25 -5 -41 -6 -166 -36 -250 -60 -33 -9 -64
-18 -70 -19 -5 -1 -15 -5 -21 -8 -6 -4 -26 -10 -44 -13 -18 -3 -38 -9 -44 -13
-6 -4 -13 -7 -16 -8 -23 -4 -71 -20 -100 -33 -19 -8 -37 -15 -40 -16 -16 -5
-47 -18 -62 -26 -10 -5 -22 -9 -28 -9 -18 0 -292 -132 -370 -179 -19 -11 -48
-28 -65 -37 -31 -17 -206 -134 -215 -144 -3 -3 -23 -18 -45 -34 -22 -16 -47
-37 -56 -45 -9 -9 -38 -34 -65 -56 -66 -55 -192 -186 -274 -286 -41 -50 -150
-206 -150 -216 0 -3 -10 -20 -23 -37 -73 -99 -217 -456 -243 -601 -3 -17 -9
-46 -14 -65 -17 -68 -39 -235 -46 -345 -8 -125 -10 -275 -4 -275 3 0 6 -35 7
-78 1 -42 4 -93 7 -112 3 -19 7 -53 10 -75 11 -93 55 -286 68 -302 6 -7 8 -13
4 -13 -5 0 29 -106 53 -165 56 -137 216 -424 242 -433 5 -2 9 -10 9 -17 0 -7
4 -15 8 -17 4 -1 23 -23 42 -48 137 -176 375 -391 590 -531 83 -55 143 -92
165 -104 11 -7 57 -33 102 -58 74 -42 385 -197 396 -197 3 0 22 -8 43 -17 22
-9 42 -16 47 -15 4 1 7 -3 7 -8 0 -5 3 -9 8 -8 4 1 23 -5 42 -14 19 -8 53 -21
75 -28 22 -7 45 -16 50 -20 8 -5 157 -62 175 -66 3 0 12 -3 20 -6 41 -16 56
-21 65 -24 6 -1 76 -25 158 -53 81 -27 150 -50 152 -51 3 0 10 -2 17 -5 53
-17 187 -56 203 -59 11 -2 40 -11 65 -19 25 -8 59 -18 75 -23 33 -8 33 -8 55
-16 17 -7 237 -69 254 -72 6 -2 36 -10 67 -20 31 -9 65 -18 75 -21 11 -2 51
-13 89 -25 39 -12 80 -23 92 -26 12 -2 35 -9 50 -15 16 -6 39 -13 53 -15 14
-3 32 -7 40 -11 8 -3 21 -7 29 -9 8 -1 37 -10 65 -18 28 -9 67 -21 86 -26 57
-16 263 -80 285 -89 11 -5 25 -10 30 -11 72 -20 258 -97 330 -136 22 -12 56
-30 75 -41 82 -44 119 -73 195 -150 73 -73 119 -158 141 -263 9 -39 10 -158 2
-209 -9 -57 -54 -196 -69 -215 -5 -6 -26 -36 -46 -66 -64 -95 -164 -180 -308
-260 -33 -18 -61 -33 -63 -31 -1 1 -15 -5 -30 -12 -21 -11 -115 -45 -142 -52
-3 -1 -12 -5 -20 -8 -17 -7 -123 -34 -161 -41 -13 -2 -24 -5 -24 -6 0 -1 -11
-3 -25 -5 -14 -2 -54 -8 -90 -14 -36 -5 -86 -13 -113 -16 -26 -4 -64 -9 -85
-12 -53 -7 -635 -11 -647 -5 -5 3 -32 7 -60 9 -27 1 -66 4 -85 7 -19 2 -60 7
-90 11 -30 4 -77 11 -105 16 -27 5 -63 11 -80 13 -16 3 -41 7 -55 10 -14 3
-36 8 -50 11 -14 2 -49 10 -77 16 -29 5 -56 10 -60 11 -5 0 -15 4 -24 9 -9 4
-31 11 -50 15 -41 7 -49 9 -69 17 -8 3 -60 19 -115 37 -55 17 -131 43 -170 58
-38 14 -73 25 -77 24 -5 -1 -8 2 -8 6 0 5 -6 9 -13 9 -15 0 -46 14 -247 112
-163 79 -243 122 -248 134 -2 4 -8 7 -14 7 -10 0 -288 182 -311 204 -7 6 -37
30 -67 52 -30 23 -65 50 -76 60 -12 11 -43 37 -70 59 -27 22 -70 61 -97 87
-27 27 -53 48 -57 48 -7 0 -85 -101 -140 -180 -35 -50 -86 -115 -92 -118 -5
-2 -8 -8 -8 -13 0 -10 -91 -132 -102 -137 -5 -2 -8 -10 -8 -17 0 -7 -3 -15 -8
-17 -6 -3 -74 -92 -112 -148 -8 -12 -20 -28 -25 -34 -10 -11 -86 -114 -115
-156 -15 -21 -97 -132 -255 -346 -44 -60 -82 -113 -84 -119 -2 -5 -7 -12 -11
-15 -4 -3 -28 -33 -53 -68 l-46 -63 42 -38 c23 -21 53 -46 66 -57 13 -10 34
-29 47 -42 13 -12 26 -22 30 -22 3 0 21 -12 39 -27 18 -16 45 -37 60 -48 16
-11 33 -24 39 -30 25 -22 105 -75 114 -75 6 0 12 -4 14 -8 4 -10 71 -56 168
-114 72 -44 329 -188 335 -188 2 0 64 -29 140 -65 75 -36 140 -65 145 -65 5 0
21 -7 37 -15 83 -43 433 -168 603 -216 25 -7 50 -14 55 -15 39 -11 133 -37
145 -40 8 -2 42 -10 76 -18 34 -8 72 -17 85 -20 13 -3 54 -12 90 -20 60 -13
113 -23 164 -31 39 -6 90 -16 105 -20 15 -4 92 -15 145 -21 17 -1 46 -5 65 -8
19 -4 58 -8 85 -11 28 -3 64 -7 80 -10 17 -2 64 -7 105 -10 119 -8 182 -15
191 -20 4 -3 10 -1 14 5 4 6 11 7 17 4 6 -4 39 -8 72 -10 100 -4 545 -4 631 0
177 10 280 17 324 22 25 3 64 8 86 10 22 3 60 7 85 8 25 2 45 5 45 6 0 1 11 3
25 5 34 3 110 14 136 19 12 2 39 7 60 11 56 8 107 18 164 30 14 3 34 7 45 9
20 5 212 52 250 62 11 3 25 6 30 8 6 1 35 11 65 21 30 11 57 20 60 20 45 11
87 26 205 72 77 29 147 58 155 63 8 6 22 13 30 16 8 4 43 19 77 35 35 16 66
29 69 28 4 0 10 3 13 8 3 5 42 29 86 53 44 24 89 52 99 62 11 10 25 18 31 18
11 0 25 10 73 50 6 6 12 8 12 5 0 -4 6 0 13 7 8 7 26 22 42 33 106 76 265 220
355 322 68 77 81 93 132 163 26 36 51 70 56 75 27 35 116 189 153 265 54 112
137 334 155 415 1 6 5 21 8 35 3 14 8 36 11 50 9 41 25 123 31 160 3 19 7 47
10 61 4 28 14 117 20 189 7 90 3 435 -6 435 0 0 -3 23 -5 50 -4 51 -8 81 -20
145 -4 19 -8 44 -10 55 -16 81 -71 266 -99 330 -49 109 -59 131 -67 145 -5 8
-19 36 -31 63 -13 26 -26 47 -30 47 -5 0 -8 6 -8 14 0 7 -7 20 -16 27 -9 7
-20 22 -24 34 -25 66 -301 374 -420 470 -14 11 -45 36 -70 55 -25 19 -46 38
-48 42 -2 5 -10 8 -17 8 -7 0 -15 4 -17 8 -4 12 -185 132 -198 132 -5 0 -10 5
-10 10 0 6 -4 10 -9 10 -5 0 -40 19 -77 42 -99 59 -407 208 -559 269 -175 70
-231 91 -430 158 -93 32 -177 61 -185 64 -30 10 -233 69 -249 72 -9 2 -17 4
-18 5 -2 2 -6 3 -10 4 -5 1 -35 10 -68 21 -62 19 -64 19 -105 29 -24 5 -153
41 -255 71 -27 8 -61 17 -75 20 -14 2 -47 11 -75 19 -27 9 -81 24 -120 35 -38
10 -97 27 -130 37 -33 10 -62 18 -65 19 -3 1 -32 9 -65 20 -33 10 -64 19 -70
21 -5 1 -48 14 -95 29 -47 15 -89 28 -95 29 -5 2 -19 6 -30 10 -84 32 -100 38
-100 36 0 -2 -12 2 -140 50 -505 189 -764 387 -828 630 -7 30 -13 67 -13 83 1
15 -3 27 -9 27 -6 0 -7 3 0 8 6 4 10 32 11 63 3 130 77 275 203 392 28 26 54
47 58 47 4 0 16 9 27 19 12 11 48 34 81 51 33 17 64 35 70 39 9 7 121 54 135
57 3 0 12 3 20 7 29 11 117 38 139 42 12 2 31 7 41 10 10 3 28 8 39 10 12 3
31 7 44 10 12 3 36 7 52 9 17 2 46 7 65 10 79 14 99 16 190 23 182 14 512 8
683 -13 50 -6 174 -25 202 -31 11 -2 34 -6 50 -8 40 -5 74 -12 169 -36 45 -11
91 -22 103 -24 12 -3 34 -10 48 -15 14 -5 25 -7 25 -4 0 2 8 0 18 -5 11 -6 30
-12 43 -15 26 -5 190 -61 224 -76 11 -5 58 -24 105 -42 76 -29 397 -184 410
-198 3 -3 16 -11 29 -18 13 -8 39 -23 58 -33 56 -31 218 -142 221 -151 2 -4 8
-8 13 -8 5 0 44 -27 86 -61 l77 -61 18 24 c10 12 26 35 35 51 10 15 21 27 25
27 4 0 8 4 8 9 0 6 28 48 63 95 34 47 96 133 137 191 41 58 82 114 90 125 8
11 29 38 45 61 17 23 45 62 63 86 17 24 32 46 32 49 0 3 6 11 13 18 6 8 19 24
27 36 8 13 24 35 36 49 11 14 36 49 54 76 19 28 39 55 45 62 5 6 20 27 33 45
13 18 89 125 169 237 145 202 154 220 106 221 -7 0 -13 4 -13 8 0 4 -12 15
-27 24 -16 9 -37 24 -48 32 -30 24 -152 103 -204 133 -25 15 -48 30 -51 33 -5
6 -175 104 -255 146 -58 31 -229 118 -235 119 -3 1 -41 19 -85 39 -115 54
-348 146 -505 199 -121 41 -435 129 -500 141 -14 2 -45 9 -70 14 -25 6 -61 13
-81 16 -20 3 -42 8 -50 10 -8 3 -32 8 -53 11 -21 3 -48 7 -60 10 -32 7 -96 16
-146 20 -25 3 -56 7 -70 10 -14 3 -56 8 -95 12 -90 8 -88 7 -102 16 -6 4 -14
3 -18 -3 -4 -6 -10 -8 -15 -5 -13 8 -81 13 -260 21 -150 6 -400 11 -403 7z"/>
</g>
</svg>
